<?xml version="1.0" encoding="UTF-8"?>
<svg id="Layer_1" xmlns="http://www.w3.org/2000/svg" version="1.1" viewBox="0 0 512 512">
  <!-- Generator: Adobe Illustrator 29.0.1, SVG Export Plug-In . SVG Version: 2.1.0 Build 192)  -->
  <defs>
    <style>
      .st0 {
        fill: #39b44a;
      }

      .st1 {
        fill: #fff;
      }
    </style>
  </defs>
  <circle class="st0" cx="255.7" cy="255.6" r="247.9"/>
  <g>
    <path class="st1" d="M451.3,227.1c3.1-5.5-1.1-12.2-7.4-11.7l-32.7,2.3c-4.5.3-8.3-3.2-8.4-7.7l-.7-31c-.1-5.8-6.2-9.4-11.4-6.8l-60.3,30.4c-5.8,2.9-12.5-2.1-11.2-8.5l16.1-81c1.2-6.3-5.1-11.3-11-8.7l-31.9,14.5c-4.3,2-9.3-.3-10.7-4.8l-18.5-59c-2.3-7.3-12.7-7.3-15,0l-18.5,59c-1.4,4.5-6.5,6.8-10.7,4.8l-31.9-14.5c-5.8-2.6-12.2,2.4-11,8.7l16.1,81c1.3,6.4-5.4,11.5-11.2,8.5l-60.3-30.4c-5.2-2.6-11.3,1.1-11.4,6.8l-.7,31c-.1,4.5-3.9,8-8.4,7.7l-32.7-2.3c-6.3-.4-10.5,6.3-7.4,11.7l22.7,39.5c1.8,3.2,1.2,7.2-1.5,9.7l-17.5,15.9c-4.1,3.8-3.1,10.5,1.9,12.9l79.9,38.2c3.4,1.6,5.2,5.5,4.2,9.2l-16.8,59.8c-1.8,6.3,4.5,11.9,10.6,9.4l100.6-41.7v-144c0-6.4,5.1-11.5,11.5-11.5s11.5,5.1,11.5,11.5v144l100.6,41.7c6.1,2.5,12.3-3.1,10.6-9.4l-16.8-59.8c-1-3.7.7-7.6,4.2-9.2l79.9-38.2c5-2.4,6-9.1,1.9-12.9l-17.5-15.9c-2.7-2.5-3.4-6.5-1.5-9.7l22.7-39.5Z"/>
    <path class="st1" d="M252.7,376.4l-8.5,3.5v70.2c0,6.4,5.1,11.5,11.5,11.5s11.5-5.1,11.5-11.5v-70.2l-8.5-3.5c-1.9-.8-4.1-.8-6,0Z"/>
  </g>
</svg>