<?xml version="1.0" encoding="UTF-8"?>
<svg id="Layer_1" xmlns="http://www.w3.org/2000/svg" version="1.1" viewBox="0 0 64 64">
  <!-- Generator: Adobe Illustrator 29.0.1, SVG Export Plug-In . SVG Version: 2.1.0 Build 192)  -->
  <defs>
    <style>
      .st0 {
        fill: #fff;
      }
    </style>
  </defs>
  <path class="st0" d="M58.7,28.1c.4-.7-.1-1.7-1-1.6l-4.5.3c-.6,0-1.1-.4-1.1-1v-4.2c-.1-.8-.9-1.3-1.6-.9l-8.2,4.1c-.8.4-1.7-.3-1.5-1.2l2.2-11c.2-.9-.7-1.5-1.5-1.2l-4.3,2c-.6.3-1.3,0-1.5-.7l-2.5-8c-.3-1-1.7-1-2,0l-2.5,8c-.2.6-.9.9-1.5.7l-4.3-2c-.8-.4-1.7.3-1.5,1.2l2.2,11c.2.9-.7,1.6-1.5,1.2l-8.2-4.1c-.7-.4-1.5.1-1.6.9v4.2c-.1.6-.6,1.1-1.2,1l-4.5-.3c-.9,0-1.4.9-1,1.6l3.1,5.4c.2.4.2,1-.2,1.3l-2.4,2.2c-.6.5-.4,1.4.3,1.8l10.9,5.2c.5.2.7.7.6,1.3l-2.3,8.1c-.2.9.6,1.6,1.4,1.3l13.7-5.7v-19.6c0-.9.7-1.6,1.6-1.6s1.6.7,1.6,1.6v19.6l13.7,5.7c.8.3,1.7-.4,1.4-1.3l-2.3-8.1c-.1-.5,0-1,.6-1.3l10.9-5.2c.7-.3.8-1.2.3-1.8l-2.4-2.2c-.4-.3-.5-.9-.2-1.3l3.1-5.4h0Z"/>
  <path class="st0" d="M31.6,48.5l-1.2.5v9.6c0,.9.7,1.6,1.6,1.6s1.6-.7,1.6-1.6v-9.6l-1.2-.5c-.3-.1-.6-.1-.8,0h0Z"/>
</svg>